<svg width="585" height="457" viewBox="0 0 585 457" fill="none" xmlns="http://www.w3.org/2000/svg">
<path d="M144.284 140.764C145.342 141.422 146.381 142.093 147.418 142.785C158.377 170.357 164.634 199.572 165.929 229.214C166.089 232.642 166.17 236.064 166.172 239.482C166.267 265.108 162.537 290.606 155.107 315.132C154.715 316.423 154.315 317.709 153.906 318.99C153.613 319.909 153.314 320.837 152.99 321.749C152.646 322.216 152.307 322.675 151.968 323.134C151.944 323.154 151.923 323.188 151.899 323.209C151.762 323.394 151.626 323.579 151.503 323.761C150.917 324.547 150.322 325.329 149.736 326.116L150.23 326.149L151.467 326.228L151.462 326.236C151.046 326.228 150.623 326.214 150.204 326.192C150.052 326.192 149.886 326.196 149.73 326.182C149.592 326.18 149.445 326.172 149.306 326.169C131.466 325.686 113.209 324.795 96.9751 317.5C79.9831 309.857 65.5694 293.334 66.3019 274.723C66.405 272.286 66.7748 269.867 67.4048 267.51C67.6677 266.526 67.9785 265.558 68.3114 264.593C70.3377 258.685 73.9011 253.422 78.6353 249.347C83.3694 245.272 89.1035 242.531 95.248 241.406C101.392 240.282 107.726 240.814 113.596 242.948C119.467 245.082 124.663 248.742 128.651 253.55C123.781 234.412 102.876 224.646 84.0468 218.709C65.2039 212.775 44.004 206.568 34.3773 189.325C29.0026 179.729 28.8731 168.549 32.3802 158.225C32.487 157.917 32.5991 157.6 32.7197 157.288C37.1367 145.141 45.9745 135.108 57.4671 129.193C79.0002 118.532 105.166 122.294 127.229 131.809C133.132 134.359 138.833 137.352 144.284 140.764V140.764Z" fill="#F2F2F2"/>
<path d="M82.566 264.672C99.4911 266.228 115.466 273.189 128.131 284.525C138.916 294.287 146.875 306.773 151.171 320.672C151.421 321.467 151.649 322.261 151.863 323.058C152.29 322.244 152.706 321.411 153.116 320.587C153.381 320.059 153.65 319.523 153.906 318.99C153.613 319.909 153.314 320.837 152.99 321.749C152.646 322.216 152.307 322.675 151.968 323.134C151.944 323.154 151.923 323.188 151.899 323.209C151.763 323.394 151.626 323.579 151.503 323.761C150.917 324.547 150.322 325.33 149.736 326.116L150.23 326.149L151.467 326.228L151.462 326.236C151.047 326.228 150.623 326.214 150.204 326.192C150.052 326.192 149.886 326.196 149.731 326.183C149.679 325.941 149.615 325.703 149.55 325.465C145.165 307.513 134.431 291.756 119.332 281.103C104.232 270.45 85.7874 265.622 67.405 267.51C67.6679 266.526 67.9787 265.558 68.3116 264.593C73.0563 264.205 77.8258 264.232 82.566 264.672Z" fill="white"/>
<path d="M138.8 193.885C145.591 198.973 151.603 205.026 156.644 211.852C159.271 215.491 161.553 219.366 163.46 223.428C164.365 225.312 165.188 227.253 165.93 229.214C166.089 232.642 166.17 236.064 166.172 239.482C165.543 236.898 164.776 234.35 163.875 231.849C163.406 230.475 162.885 229.129 162.332 227.798C156.126 212.891 144.882 201.121 131.621 192.172C117.412 182.598 101.392 175.41 85.1572 170.065C68.5191 164.562 51.2691 161.119 33.7933 159.814C33.3986 159.782 33.0314 159.599 32.7683 159.303C32.5051 159.007 32.3662 158.621 32.3805 158.225C32.3671 157.881 32.4889 157.544 32.72 157.288C32.8427 157.168 32.992 157.078 33.1558 157.026C33.3195 156.974 33.4932 156.961 33.6629 156.988C35.8195 157.149 37.9705 157.32 40.1214 157.548C58.0179 159.391 75.6157 163.453 92.5096 169.64C108.818 175.591 124.958 183.308 138.8 193.885Z" fill="white"/>
<path d="M50.1255 111.442C53.4292 111.442 56.1073 108.764 56.1073 105.46C56.1073 102.156 53.4292 99.4783 50.1255 99.4783C46.8219 99.4783 44.1437 102.156 44.1437 105.46C44.1437 108.764 46.8219 111.442 50.1255 111.442Z" fill="#F2F2F2"/>
<path d="M417.609 160.682H146.071V391.962H417.609V160.682Z" fill="white"/>
<path d="M418.398 392.752H145.282V159.893H418.398V392.752ZM146.861 391.173H416.819V161.471H146.861V391.173Z" fill="#3F3D56"/>
<path d="M315.782 205.675H247.898V391.962H315.782V205.675Z" fill="#6C63FF"/>
<path d="M315.782 205.675H247.898V391.962H315.782V205.675Z" fill="#6C63FF"/>
<path opacity="0.2" d="M146.861 177.653V215.177L417.609 232.513L416.811 186.211L146.861 177.653Z" fill="#2B2B2B"/>
<path d="M433.396 139.37H130.284V205.675H433.396V139.37Z" fill="white"/>
<path d="M434.185 206.464H129.495V138.58H434.185V206.464ZM131.074 204.886H432.606V140.159H131.074V204.886Z" fill="#3F3D56"/>
<path d="M315.782 133.055H247.898V204.886H315.782V133.055Z" fill="#6C63FF"/>
<path d="M274.572 70.4245C292.491 96.9875 275.608 139.71 275.608 139.71C275.608 139.71 229.671 139.366 211.752 112.803C193.832 86.2399 210.716 43.5171 210.716 43.5171C210.716 43.5171 256.652 43.8615 274.572 70.4245Z" fill="#6C63FF"/>
<path d="M282.794 70.4245C264.874 96.9875 281.758 139.71 281.758 139.71C281.758 139.71 327.694 139.366 345.614 112.803C363.533 86.2399 346.65 43.5171 346.65 43.5171C346.65 43.5171 300.713 43.8615 282.794 70.4245Z" fill="#6C63FF"/>
<path d="M234.479 90.4295C238.402 90.4295 241.583 87.2489 241.583 83.3254C241.583 79.4018 238.402 76.2212 234.479 76.2212C230.555 76.2212 227.375 79.4018 227.375 83.3254C227.375 87.2489 230.555 90.4295 234.479 90.4295Z" fill="#3F3D56"/>
<path d="M277.104 162.261C281.027 162.261 284.208 159.08 284.208 155.157C284.208 151.233 281.027 148.052 277.104 148.052C273.18 148.052 270 151.233 270 155.157C270 159.08 273.18 162.261 277.104 162.261Z" fill="#3F3D56"/>
<path d="M277.104 317.763C281.027 317.763 284.208 314.583 284.208 310.659C284.208 306.736 281.027 303.555 277.104 303.555C273.18 303.555 270 306.736 270 310.659C270 314.583 273.18 317.763 277.104 317.763Z" fill="#3F3D56"/>
<path d="M253.423 114.11C256.039 114.11 258.159 111.99 258.159 109.374C258.159 106.758 256.039 104.638 253.423 104.638C250.808 104.638 248.687 106.758 248.687 109.374C248.687 111.99 250.808 114.11 253.423 114.11Z" fill="#3F3D56"/>
<path d="M324.465 73.8532C327.081 73.8532 329.201 71.7328 329.201 69.1171C329.201 66.5014 327.081 64.381 324.465 64.381C321.849 64.381 319.729 66.5014 319.729 69.1171C319.729 71.7328 321.849 73.8532 324.465 73.8532Z" fill="#3F3D56"/>
<path d="M293.68 185.152C296.296 185.152 298.416 183.031 298.416 180.416C298.416 177.8 296.296 175.68 293.68 175.68C291.065 175.68 288.944 177.8 288.944 180.416C288.944 183.031 291.065 185.152 293.68 185.152Z" fill="#3F3D56"/>
<path d="M265.264 246.721C267.879 246.721 270 244.601 270 241.985C270 239.37 267.879 237.249 265.264 237.249C262.648 237.249 260.527 239.37 260.527 241.985C260.527 244.601 262.648 246.721 265.264 246.721Z" fill="#3F3D56"/>
<path d="M289.734 268.034C292.349 268.034 294.47 265.914 294.47 263.298C294.47 260.682 292.349 258.562 289.734 258.562C287.118 258.562 284.997 260.682 284.997 263.298C284.997 265.914 287.118 268.034 289.734 268.034Z" fill="#3F3D56"/>
<path d="M284.208 357.231C286.824 357.231 288.944 355.11 288.944 352.495C288.944 349.879 286.824 347.759 284.208 347.759C281.592 347.759 279.472 349.879 279.472 352.495C279.472 355.11 281.592 357.231 284.208 357.231Z" fill="#3F3D56"/>
<path d="M521.18 269.271H376.7V392.332H521.18V269.271Z" fill="white"/>
<path d="M521.6 392.752H376.28V268.851H521.6V392.752ZM377.12 391.912H520.76V269.691H377.12V391.912Z" fill="#3F3D56"/>
<path d="M467 293.211H430.88V392.332H467V293.211Z" fill="#6C63FF"/>
<path d="M467 293.211H430.88V392.332H467V293.211Z" fill="#6C63FF"/>
<path opacity="0.2" d="M377.12 278.302V298.268L521.18 307.491L520.756 282.855L377.12 278.302Z" fill="#2B2B2B"/>
<path d="M529.58 257.931H368.3V293.211H529.58V257.931Z" fill="white"/>
<path d="M530 293.631H367.88V257.511H530V293.631ZM368.72 292.791H529.16V258.351H368.72V292.791Z" fill="#3F3D56"/>
<path d="M467 254.571H430.88V292.791H467V254.571Z" fill="#6C63FF"/>
<path d="M445.072 221.247C454.607 235.381 445.624 258.113 445.624 258.113C445.624 258.113 421.182 257.929 411.647 243.796C402.112 229.662 411.096 206.93 411.096 206.93C411.096 206.93 435.538 207.113 445.072 221.247Z" fill="#6C63FF"/>
<path d="M449.447 221.247C439.913 235.381 448.896 258.113 448.896 258.113C448.896 258.113 473.338 257.929 482.873 243.796C492.407 229.662 483.424 206.93 483.424 206.93C483.424 206.93 458.982 207.113 449.447 221.247Z" fill="#6C63FF"/>
<path d="M423.74 231.891C425.827 231.891 427.52 230.199 427.52 228.111C427.52 226.024 425.827 224.331 423.74 224.331C421.652 224.331 419.96 226.024 419.96 228.111C419.96 230.199 421.652 231.891 423.74 231.891Z" fill="#3F3D56"/>
<path d="M446.42 270.111C448.507 270.111 450.2 268.419 450.2 266.331C450.2 264.244 448.507 262.551 446.42 262.551C444.332 262.551 442.64 264.244 442.64 266.331C442.64 268.419 444.332 270.111 446.42 270.111Z" fill="#3F3D56"/>
<path d="M446.42 352.852C448.507 352.852 450.2 351.159 450.2 349.072C450.2 346.984 448.507 345.292 446.42 345.292C444.332 345.292 442.64 346.984 442.64 349.072C442.64 351.159 444.332 352.852 446.42 352.852Z" fill="#3F3D56"/>
<path d="M433.82 244.491C435.212 244.491 436.34 243.363 436.34 241.971C436.34 240.58 435.212 239.451 433.82 239.451C432.428 239.451 431.3 240.58 431.3 241.971C431.3 243.363 432.428 244.491 433.82 244.491Z" fill="#3F3D56"/>
<path d="M471.62 223.071C473.012 223.071 474.14 221.943 474.14 220.551C474.14 219.159 473.012 218.031 471.62 218.031C470.228 218.031 469.1 219.159 469.1 220.551C469.1 221.943 470.228 223.071 471.62 223.071Z" fill="#3F3D56"/>
<path d="M455.24 282.291C456.632 282.291 457.76 281.163 457.76 279.771C457.76 278.38 456.632 277.251 455.24 277.251C453.848 277.251 452.72 278.38 452.72 279.771C452.72 281.163 453.848 282.291 455.24 282.291Z" fill="#3F3D56"/>
<path d="M440.12 315.051C441.512 315.051 442.64 313.923 442.64 312.531C442.64 311.14 441.512 310.011 440.12 310.011C438.728 310.011 437.6 311.14 437.6 312.531C437.6 313.923 438.728 315.051 440.12 315.051Z" fill="#3F3D56"/>
<path d="M453.14 326.392C454.532 326.392 455.66 325.263 455.66 323.872C455.66 322.48 454.532 321.352 453.14 321.352C451.748 321.352 450.62 322.48 450.62 323.872C450.62 325.263 451.748 326.392 453.14 326.392Z" fill="#3F3D56"/>
<path d="M450.2 373.852C451.591 373.852 452.72 372.723 452.72 371.332C452.72 369.94 451.591 368.812 450.2 368.812C448.808 368.812 447.68 369.94 447.68 371.332C447.68 372.723 448.808 373.852 450.2 373.852Z" fill="#3F3D56"/>
<path d="M272.577 335.635C273.84 332.973 267.987 327.553 259.505 323.53C251.024 319.507 243.124 318.405 241.861 321.068C240.598 323.73 246.45 329.15 254.932 333.173C263.414 337.196 271.314 338.298 272.577 335.635Z" fill="#2F2E41"/>
<path d="M342.579 363.061C344.838 361.169 341.785 353.801 335.758 346.603C329.732 339.405 323.015 335.104 320.755 336.996C318.495 338.887 321.549 346.256 327.575 353.454C333.602 360.652 340.319 364.953 342.579 363.061Z" fill="#2F2E41"/>
<path d="M295.509 378.121C314.284 378.121 329.504 362.901 329.504 344.126C329.504 325.351 314.284 310.13 295.509 310.13C276.734 310.13 261.513 325.351 261.513 344.126C261.513 362.901 276.734 378.121 295.509 378.121Z" fill="#2F2E41"/>
<path d="M309.898 370.805H299.57V389.309H309.898V370.805Z" fill="#2F2E41"/>
<path d="M289.242 370.805H278.915V389.309H289.242V370.805Z" fill="#2F2E41"/>
<path d="M301.291 392.752C306.044 392.752 309.898 391.307 309.898 389.524C309.898 387.742 306.044 386.297 301.291 386.297C296.538 386.297 292.685 387.742 292.685 389.524C292.685 391.307 296.538 392.752 301.291 392.752Z" fill="#2F2E41"/>
<path d="M280.636 392.321C285.389 392.321 289.242 390.876 289.242 389.094C289.242 387.312 285.389 385.867 280.636 385.867C275.883 385.867 272.03 387.312 272.03 389.094C272.03 390.876 275.883 392.321 280.636 392.321Z" fill="#2F2E41"/>
<path d="M284.835 301.392C287.87 289.168 301.269 281.974 314.763 285.324C328.256 288.675 336.734 301.301 333.698 313.526C330.663 325.75 320.592 325.79 307.098 322.439C293.605 319.089 281.799 313.617 284.835 301.392Z" fill="#E6E6E6"/>
<path d="M290.426 348.286C296.686 348.286 301.761 343.212 301.761 336.952C301.761 330.693 296.686 325.618 290.426 325.618C284.167 325.618 279.092 330.693 279.092 336.952C279.092 343.212 284.167 348.286 290.426 348.286Z" fill="white"/>
<path d="M285.768 336.668C287.855 336.668 289.546 334.976 289.546 332.89C289.546 330.803 287.855 329.112 285.768 329.112C283.682 329.112 281.99 330.803 281.99 332.89C281.99 334.976 283.682 336.668 285.768 336.668Z" fill="#3F3D56"/>
<path d="M297.536 360.566C297.714 361.542 297.698 362.544 297.488 363.514C297.279 364.484 296.881 365.403 296.316 366.219C295.751 367.035 295.032 367.732 294.198 368.27C293.364 368.807 292.432 369.176 291.456 369.353C290.48 369.531 289.478 369.515 288.508 369.305C287.538 369.096 286.619 368.698 285.803 368.133C284.987 367.568 284.29 366.848 283.752 366.015C283.215 365.181 282.846 364.249 282.669 363.273V363.273L282.666 363.258C281.923 359.152 285.098 357.699 289.204 356.955C293.31 356.212 296.793 356.46 297.536 360.566Z" fill="white"/>
<path d="M364.24 88.096C372.916 84.5123 379.038 79.399 377.913 76.6751C376.788 73.9513 368.842 74.6484 360.166 78.2321C351.489 81.8159 345.367 86.9292 346.492 89.653C347.617 92.3769 355.563 91.6798 364.24 88.096Z" fill="#2F2E41"/>
<path d="M447.563 111.559C449.822 109.667 446.769 102.298 440.742 95.1005C434.716 87.9027 427.998 83.6015 425.739 85.4934C423.479 87.3853 426.533 94.7539 432.559 101.952C438.586 109.149 445.303 113.451 447.563 111.559Z" fill="#2F2E41"/>
<path d="M400.493 126.619C419.268 126.619 434.488 111.398 434.488 92.6234C434.488 73.8483 419.268 58.6281 400.493 58.6281C381.718 58.6281 366.497 73.8483 366.497 92.6234C366.497 111.398 381.718 126.619 400.493 126.619Z" fill="#2F2E41"/>
<path d="M414.882 119.303H404.554V137.807H414.882V119.303Z" fill="#2F2E41"/>
<path d="M394.226 119.303H383.899V137.807H394.226V119.303Z" fill="#2F2E41"/>
<path d="M406.275 141.249C411.028 141.249 414.882 139.805 414.882 138.022C414.882 136.24 411.028 134.795 406.275 134.795C401.522 134.795 397.669 136.24 397.669 138.022C397.669 139.805 401.522 141.249 406.275 141.249Z" fill="#2F2E41"/>
<path d="M385.62 140.819C390.373 140.819 394.226 139.374 394.226 137.592C394.226 135.809 390.373 134.364 385.62 134.364C380.867 134.364 377.013 135.809 377.013 137.592C377.013 139.374 380.867 140.819 385.62 140.819Z" fill="#2F2E41"/>
<path d="M389.818 49.8903C392.854 37.6656 406.253 30.4716 419.747 33.8221C433.24 37.1726 441.718 49.7988 438.682 62.0235C435.647 74.2482 425.576 74.2877 412.082 70.9372C398.589 67.5866 386.783 62.115 389.818 49.8903Z" fill="#6C63FF"/>
<path d="M395.41 96.7842C401.67 96.7842 406.744 91.7097 406.744 85.4501C406.744 79.1905 401.67 74.1161 395.41 74.1161C389.151 74.1161 384.076 79.1905 384.076 85.4501C384.076 91.7097 389.151 96.7842 395.41 96.7842Z" fill="white"/>
<path d="M390.752 90.6909C392.839 90.6909 394.53 88.9994 394.53 86.9129C394.53 84.8264 392.839 83.1349 390.752 83.1349C388.666 83.1349 386.974 84.8264 386.974 86.9129C386.974 88.9994 388.666 90.6909 390.752 90.6909Z" fill="#3F3D56"/>
<path d="M402.52 109.064C402.879 111.035 402.44 113.069 401.3 114.717C400.16 116.365 398.411 117.492 396.44 117.851C394.468 118.21 392.435 117.771 390.787 116.631C389.139 115.49 388.012 113.742 387.653 111.77L387.65 111.756C386.907 107.649 390.081 106.196 394.188 105.453C398.294 104.71 401.777 104.958 402.52 109.064Z" fill="white"/>
<path d="M109.633 378.121C128.409 378.121 143.629 362.901 143.629 344.125C143.629 325.35 128.409 310.13 109.633 310.13C90.8584 310.13 75.6382 325.35 75.6382 344.125C75.6382 362.901 90.8584 378.121 109.633 378.121Z" fill="#2F2E41"/>
<path d="M104.47 370.805H94.142V389.309H104.47V370.805Z" fill="#2F2E41"/>
<path d="M125.125 370.805H114.797V389.309H125.125V370.805Z" fill="#2F2E41"/>
<path d="M102.748 392.752C107.502 392.752 111.355 391.307 111.355 389.524C111.355 387.742 107.502 386.297 102.748 386.297C97.9952 386.297 94.142 387.742 94.142 389.524C94.142 391.307 97.9952 392.752 102.748 392.752Z" fill="#2F2E41"/>
<path d="M123.404 392.321C128.157 392.321 132.01 390.876 132.01 389.094C132.01 387.312 128.157 385.867 123.404 385.867C118.651 385.867 114.797 387.312 114.797 389.094C114.797 390.876 118.651 392.321 123.404 392.321Z" fill="#2F2E41"/>
<path d="M76.6569 312.511C73.912 300.218 82.6865 287.796 96.2555 284.766C109.824 281.736 123.049 289.246 125.794 301.539C128.539 313.832 119.547 318.366 105.978 321.396C92.4089 324.426 79.4019 324.804 76.6569 312.511Z" fill="#6C63FF"/>
<path d="M146.267 329.27C153.629 321.902 157.722 314.056 155.409 311.744C153.096 309.433 145.253 313.533 137.891 320.9C130.528 328.268 126.435 336.115 128.748 338.426C131.061 340.737 138.905 336.638 146.267 329.27Z" fill="#2F2E41"/>
<path d="M82.2321 340.794C84.5452 338.483 80.4519 330.637 73.0897 323.269C65.7274 315.901 57.884 311.801 55.571 314.113C53.2579 316.424 57.3512 324.27 64.7135 331.638C72.0757 339.006 79.9191 343.106 82.2321 340.794Z" fill="#2F2E41"/>
<path d="M108.203 350.926C114.62 350.926 119.822 345.725 119.822 339.308C119.822 332.891 114.62 327.689 108.203 327.689C101.786 327.689 96.5845 332.891 96.5845 339.308C96.5845 345.725 101.786 350.926 108.203 350.926Z" fill="white"/>
<path d="M108.203 343.181C110.342 343.181 112.076 341.447 112.076 339.308C112.076 337.169 110.342 335.435 108.203 335.435C106.064 335.435 104.33 337.169 104.33 339.308C104.33 341.447 106.064 343.181 108.203 343.181Z" fill="#3F3D56"/>
<path d="M117.426 360.796C117.604 361.772 117.588 362.774 117.378 363.744C117.169 364.714 116.771 365.633 116.206 366.449C115.641 367.265 114.922 367.962 114.088 368.499C113.254 369.037 112.322 369.405 111.346 369.583C110.37 369.761 109.368 369.745 108.398 369.535C107.428 369.326 106.509 368.927 105.693 368.363C104.877 367.798 104.18 367.078 103.642 366.244C103.105 365.411 102.736 364.479 102.559 363.503V363.503L102.556 363.488C101.813 359.382 104.988 357.929 109.094 357.185C113.2 356.442 116.683 356.69 117.426 360.796Z" fill="white"/>
</svg>
